<?xml version="1.0" encoding="UTF-8"?>
<svg xmlns="http://www.w3.org/2000/svg" xmlns:xlink="http://www.w3.org/1999/xlink" viewBox="0 0 500 250">
  <defs>
    <style>
      .cls-1 {
        fill: none;
      }

      .cls-2 {
        fill: url(#linear-gradient);
      }

      .cls-3 {
        fill: #00aeef;
      }

      .cls-4 {
        fill: #fff;
      }

      .cls-5 {
        fill: #231f20;
      }

      .cls-6 {
        fill: #2e3192;
      }

      .cls-7 {
        fill: #fff200;
      }

      .cls-7, .cls-8 {
        stroke: #231f20;
        stroke-miterlimit: 10;
      }

      .cls-8 {
        fill: #e6e7e8;
      }

      .cls-9 {
        fill: url(#linear-gradient-2);
      }

      .cls-10 {
        fill: #d1d3d4;
        opacity: .3;
      }
    </style>
    <linearGradient id="linear-gradient" x1="449.81" y1="258.07" x2="108.78" y2="214.53" gradientUnits="userSpaceOnUse">
      <stop offset="0" stop-color="#f1ea40" stop-opacity="0"/>
      <stop offset="1" stop-color="#f0e91b"/>
    </linearGradient>
    <linearGradient id="linear-gradient-2" x1="419.42" y1="275.01" x2="204.11" y2="247.53" gradientTransform="translate(341.66 -72.07) rotate(-180) scale(1.41 -1.14)" xlink:href="#linear-gradient"/>
  </defs>
  <g id="sky">
    <rect class="cls-3" width="500" height="250"/>
  </g>
  <g id="stars">
    <g>
      <polygon class="cls-7" points="41.5 51.57 38.68 50.79 36.45 52.67 36.31 49.76 33.83 48.21 36.57 47.18 37.27 44.35 39.09 46.63 42.01 46.42 40.4 48.86 41.5 51.57"/>
      <polygon class="cls-7" points="132.54 39.63 130.99 39.2 129.75 40.24 129.68 38.63 128.31 37.77 129.82 37.2 130.21 35.64 131.21 36.9 132.82 36.78 131.94 38.13 132.54 39.63"/>
      <polygon class="cls-7" points="406.04 35.32 404.28 34.83 402.88 36.01 402.8 34.19 401.25 33.22 402.96 32.58 403.4 30.81 404.53 32.23 406.35 32.1 405.35 33.63 406.04 35.32"/>
      <polygon class="cls-7" points="282.43 80.41 279.61 79.63 277.38 81.51 277.25 78.6 274.77 77.05 277.5 76.02 278.2 73.19 280.03 75.47 282.94 75.26 281.33 77.7 282.43 80.41"/>
      <polygon class="cls-7" points="68.34 122.78 64.04 121.6 60.62 124.48 60.42 120.02 56.63 117.66 60.81 116.09 61.88 111.75 64.66 115.24 69.12 114.92 66.66 118.65 68.34 122.78"/>
      <polygon class="cls-7" points="242.69 27.39 240.5 26.79 238.75 28.26 238.65 25.98 236.72 24.78 238.85 23.98 239.39 21.77 240.82 23.55 243.09 23.39 241.83 25.29 242.69 27.39"/>
      <polygon class="cls-7" points="376.13 116.42 371.82 115.24 368.41 118.12 368.2 113.66 364.41 111.3 368.59 109.73 369.66 105.39 372.45 108.88 376.9 108.56 374.45 112.29 376.13 116.42"/>
      <polygon class="cls-7" points="336.38 44.69 333.57 43.91 331.33 45.79 331.2 42.88 328.72 41.33 331.45 40.3 332.15 37.47 333.98 39.75 336.89 39.54 335.29 41.98 336.38 44.69"/>
      <polygon class="cls-7" points="200.25 68.4 196.38 67.33 193.3 69.92 193.12 65.91 189.71 63.79 193.47 62.37 194.43 58.48 196.94 61.61 200.94 61.33 198.74 64.68 200.25 68.4"/>
      <polygon class="cls-7" points="138.06 121.64 135.24 120.87 133.01 122.75 132.87 119.83 130.39 118.29 133.13 117.26 133.83 114.43 135.65 116.71 138.57 116.5 136.96 118.94 138.06 121.64"/>
      <polygon class="cls-7" points="317.5 90.69 315.75 90.21 314.35 91.38 314.27 89.56 312.72 88.59 314.43 87.95 314.86 86.18 316 87.61 317.82 87.48 316.82 89 317.5 90.69"/>
      <polygon class="cls-7" points="159.71 88.09 157.95 87.61 156.56 88.78 156.47 86.96 154.93 85.99 156.63 85.35 157.07 83.58 158.21 85.01 160.03 84.88 159.03 86.4 159.71 88.09"/>
      <polygon class="cls-7" points="184.21 97.58 182.45 97.09 181.05 98.27 180.97 96.45 179.42 95.48 181.13 94.84 181.57 93.07 182.7 94.5 184.52 94.36 183.52 95.89 184.21 97.58"/>
      <polygon class="cls-7" points="305.23 95.89 303.47 95.41 302.07 96.58 301.99 94.76 300.44 93.79 302.15 93.15 302.58 91.38 303.72 92.81 305.54 92.68 304.54 94.2 305.23 95.89"/>
      <polygon class="cls-7" points="71.35 60.39 69.59 59.9 68.2 61.08 68.11 59.26 66.56 58.29 68.27 57.65 68.71 55.88 69.85 57.3 71.67 57.17 70.66 58.7 71.35 60.39"/>
      <polygon class="cls-7" points="150.81 16.53 149.05 16.05 147.65 17.22 147.57 15.4 146.02 14.44 147.73 13.79 148.17 12.02 149.3 13.45 151.12 13.32 150.12 14.84 150.81 16.53"/>
      <polygon class="cls-7" points="173.48 41.39 171.72 40.91 170.33 42.08 170.24 40.26 168.69 39.3 170.4 38.65 170.84 36.88 171.98 38.31 173.8 38.18 172.79 39.7 173.48 41.39"/>
      <polygon class="cls-7" points="230.22 39.85 228.46 39.36 227.07 40.54 226.99 38.72 225.44 37.75 227.14 37.11 227.58 35.34 228.72 36.76 230.54 36.63 229.54 38.16 230.22 39.85"/>
      <polygon class="cls-7" points="364.82 74.43 363.07 73.94 361.67 75.12 361.59 73.3 360.04 72.33 361.74 71.69 362.18 69.92 363.32 71.34 365.14 71.21 364.14 72.74 364.82 74.43"/>
      <polygon class="cls-7" points="274.66 47.7 272.9 47.22 271.51 48.39 271.42 46.57 269.88 45.61 271.58 44.96 272.02 43.19 273.16 44.62 274.98 44.49 273.98 46.01 274.66 47.7"/>
      <polygon class="cls-7" points="369.93 14.79 368.17 14.3 366.77 15.48 366.69 13.66 365.14 12.69 366.85 12.05 367.29 10.28 368.43 11.7 370.25 11.57 369.24 13.1 369.93 14.79"/>
      <polygon class="cls-7" points="302.67 25.6 300.91 25.12 299.52 26.29 299.44 24.47 297.89 23.51 299.59 22.86 300.03 21.09 301.17 22.52 302.99 22.39 301.99 23.91 302.67 25.6"/>
      <polygon class="cls-7" points="268.74 84.74 266.98 84.26 265.58 85.43 265.5 83.61 263.95 82.65 265.66 82 266.09 80.23 267.23 81.66 269.05 81.53 268.05 83.05 268.74 84.74"/>
      <polygon class="cls-7" points="488.83 12.19 487.07 11.7 485.67 12.88 485.59 11.06 484.04 10.09 485.75 9.45 486.19 7.68 487.33 9.1 489.14 8.97 488.14 10.5 488.83 12.19"/>
      <polygon class="cls-7" points="477.48 101.09 475.72 100.61 474.32 101.78 474.24 99.96 472.69 98.99 474.4 98.35 474.84 96.58 475.98 98.01 477.8 97.88 476.79 99.4 477.48 101.09"/>
      <polygon class="cls-7" points="448.9 35.48 444.59 34.3 441.18 37.17 440.98 32.71 437.19 30.35 441.36 28.78 442.44 24.45 445.22 27.93 449.67 27.62 447.22 31.34 448.9 35.48"/>
      <polygon class="cls-7" points="476.06 78.94 471.76 77.76 468.34 80.63 468.14 76.18 464.35 73.82 468.53 72.25 469.6 67.91 472.38 71.4 476.84 71.08 474.38 74.81 476.06 78.94"/>
      <polygon class="cls-7" points="405.58 72.58 401.28 71.4 397.86 74.27 397.66 69.82 393.87 67.46 398.04 65.88 399.12 61.55 401.9 65.04 406.35 64.72 403.9 68.45 405.58 72.58"/>
      <polygon class="cls-7" points="432.64 80.63 431.24 77.81 428.1 77.36 430.37 75.16 429.84 72.05 432.64 73.52 435.45 72.05 434.92 75.16 437.19 77.36 434.05 77.81 432.64 80.63"/>
      <polygon class="cls-7" points="408.68 108.93 406.92 108.44 405.53 109.62 405.44 107.8 403.89 106.83 405.6 106.19 406.04 104.42 407.18 105.84 409 105.71 407.99 107.24 408.68 108.93"/>
      <polygon class="cls-7" points="15.57 13.52 12.75 12.74 10.52 14.62 10.38 11.71 7.9 10.16 10.64 9.13 11.34 6.3 13.16 8.58 16.08 8.37 14.47 10.81 15.57 13.52"/>
      <polygon class="cls-7" points="13.71 93.4 10.89 92.63 8.66 94.51 8.52 91.59 6.04 90.05 8.78 89.02 9.48 86.18 11.3 88.46 14.22 88.25 12.61 90.69 13.71 93.4"/>
      <polygon class="cls-7" points="44.24 85.49 42.48 85.01 41.09 86.18 41 84.36 39.45 83.39 41.16 82.75 41.6 80.98 42.74 82.41 44.56 82.28 43.55 83.8 44.24 85.49"/>
      <polygon class="cls-7" points="78.38 20.03 76.62 19.54 75.23 20.72 75.14 18.89 73.6 17.93 75.3 17.29 75.74 15.52 76.88 16.94 78.7 16.81 77.7 18.34 78.38 20.03"/>
      <polygon class="cls-7" points="100.89 37.25 99.13 36.76 97.74 37.94 97.66 36.12 96.11 35.15 97.81 34.51 98.25 32.74 99.39 34.16 101.21 34.03 100.21 35.56 100.89 37.25"/>
      <polygon class="cls-7" points="119.9 46.6 118.14 46.12 116.74 47.29 116.66 45.47 115.11 44.51 116.82 43.86 117.26 42.09 118.4 43.52 120.22 43.39 119.21 44.91 119.9 46.6"/>
    </g>
  </g>
  <g id="sun-moon">
    <g>
      <circle class="cls-1" cx="250" cy="250" r="153.89"/>
      <circle class="cls-7" cx="96.11" cy="250" r="39.48"/>
      <g>
        <circle class="cls-10" cx="403.89" cy="250" r="39.48"/>
        <path class="cls-8" d="m395.09,236.74c0-5.53,1.37-10.74,3.8-15.31-10.88,4-18.64,14.45-18.64,26.7,0,15.7,12.73,28.43,28.42,28.43,7.24,0,13.84-2.7,18.86-7.17-17.94-.12-32.44-14.69-32.44-32.65Z"/>
      </g>
    </g>
  </g>
  <g id="Layer_6" data-name="Layer 6">
    <path class="cls-4" d="m0,227.36c-1.37-1.13,19.79-23.21,24.19-21.21,17.1,7.78,25.11-14.82,51.95-14.51,30.53.35,33.48,6.14,52.16,9.49s8.07,4.47,37.1,5.02,13.1-2.08,48.56,4.38c40.78,7.43,34.23,12.52,61.02,10.91,43.38-2.59,22.92-9.16,69.59-2.45s21.77,15.63,71.44,8.37,37.07-10.72,61.79-5.92,22.2,8.71,22.2,8.71v19.85H0v-19.85"/>
  </g>
  <g id="Layer_9" data-name="Layer 9">
    <polygon class="cls-5" points="-.06 220.82 73.59 220.82 86.98 227.91 92.58 227.91 164.84 227.91 181.97 231.07 0 241.59 -.06 220.82"/>
  </g>
  <g id="Layer_10" data-name="Layer 10">
    <path class="cls-5" d="m81.59,196.7l-2.74-2.37-2.88,2.37h.4l-.02,2.3h-3.4v2.74h1.35l-1.72,21.14s-.33,2.07-1.28,2.28,1.94-.42-8.41,0v5.9h29.71v-2.78h-4.74v-3.07h-1.79l-.67-2.26-2.02-21.23h1.3v-2.67h-3.35v-2.26h.35l-.07-.09Z"/>
  </g>
  <g id="light">
    <g>
      <path class="cls-2" d="m80.2,197.22c34.69,11.72,204.33,70.76,204.33,70.76l186.15,58.17s68.95-122.79,67.27-122.23-457.76-6.7-457.76-6.7Z"/>
      <path class="cls-9" d="m78.61,197.22c-30.96,8.42-182.39,50.85-182.39,50.85l-166.16,41.8s-61.54-88.24-60.05-87.84,408.6-4.81,408.6-4.81Z"/>
    </g>
  </g>
  <g id="Layer_5" data-name="Layer 5">
    <rect class="cls-6" y="230.15" width="500" height="19.85"/>
  </g>
</svg>