<?xml version="1.0" encoding="UTF-8"?>
<svg id="Capa_1" data-name="Capa 1" xmlns="http://www.w3.org/2000/svg" viewBox="0 0 800 800">
  <path d="m207.5,108.04h-16.63l7.45-7.4c1.98-1.97,1.98-5.15,0-7.12-1.98-1.97-5.19-1.97-7.17,0l-14.62,14.52h-24.57l10.93-11.67c1.91-2.03,1.79-5.22-.26-7.11-.84-.78-1.87-1.21-2.94-1.32-.64-.03-14.52,0-14.52,0l16.25-16.14h20.4c2.8,0,5.07-2.25,5.07-5.03s-2.27-5.03-5.07-5.03h-10.26l11.95-11.87c1.98-1.97,1.98-5.15,0-7.12-1.98-1.97-5.3-1.97-7.28,0l-12.2,12.01v-10.47c0-2.78-2.27-5.03-5.07-5.03s-5.07,2.25-5.07,5.03v20.54l-16.78,16.78-.28-15.2s.02-.05.02-.07c-.02-1.22-.48-2.44-1.4-3.4-1.94-2-5.26-2.06-7.27-.13l-10.78,10.22v-23.64l14.51-14.3c1.98-1.97,2.04-5.15.06-7.12-1.98-1.97-5.27-1.97-7.25,0l-7.31,7.18v-16.37c0-2.78-2.27-5.03-5.07-5.03s-5.07,2.25-5.07,5.03v16.37l-7.11-7.18c-1.98-1.97-5.13-1.97-7.11,0-1.98,1.97-2.06,5.15-.08,7.12l14.31,14.3v23.77l-10.93-10.39c-2.03-1.91-5.18-1.82-7.11.19-.73.76-1.14,1.69-1.29,2.65-.1.39-.14.8-.14,1.22l-.06,14.25-16.96-16.74v-20.06c0-2.78-2.27-5.03-5.07-5.03s-5.07,2.25-5.07,5.03v10l-11.5-11.54c-1.98-1.97-5.13-1.97-7.11,0-1.98,1.97-1.95,5.15.03,7.12l11.98,11.87h-10.74c-2.8,0-5.07,2.25-5.07,5.03s2.27,5.03,5.07,5.03h20.87l16.72,16.61-15.58.56c-2.72.1-5.08,2.31-5.11,4.98,0,.08-.24.15-.24.23h0s.23.02.23.02c.03,1.26.65,2.51,1.62,3.46l10.7,10.39h-23.46l-14.62-14.52c-1.98-1.97-5.19-1.97-7.17,0-1.98,1.97-1.98,5.15,0,7.12l7.45,7.4h-17.1c-2.8,0-5.07,2.25-5.07,5.03s2.27,5.03,5.07,5.03h16.91l-7.26,7.21c-1.98,1.97-1.98,5.15,0,7.12.99.98,2.29,1.47,3.58,1.47s2.59-.49,3.58-1.47l14.42-14.33h23.67l-10.31,11c-1.91,2.03-1.79,5.22.26,7.11.98.9,2.21,1.35,3.45,1.35.02,0,.05,0,.07,0,.01,0,.03,0,.04,0h.04l14.87-.08-16.98,16.86h-20.68c-2.8,0-5.07,2.25-5.07,5.03s2.27,5.03,5.07,5.03h10.54l-11.76,11.68c-1.98,1.97-1.98,5.15,0,7.12.99.98,2.29,1.47,3.58,1.47s2.48-.49,3.47-1.47l11.5-11.54v10.19c0,2.78,2.27,5.03,5.07,5.03s5.07-2.25,5.07-5.03v-20.26l17.19-16.97.66,16.37c.1,2.72,2.38,4.9,5.09,4.85.92-.02,1.92-.31,2.91-1.04.72-.52,10.63-10.61,10.63-10.61v23.75l-14.17,14.19c-1.98,1.97-1.92,5.15.06,7.12.99.98,2.31,1.47,3.61,1.47s2.5-.49,3.48-1.47l7.02-7.07v16.51c0,2.78,2.27,5.03,5.07,5.03s5.07-2.25,5.07-5.03v-16.99l7.71,7.54c.99.98,2.34,1.47,3.64,1.47s2.62-.49,3.61-1.47c1.98-1.97,1.88-5.15-.1-7.12l-14.86-14.66v-23.96s9.28,8.66,10.74,10.05c1.46,1.4,2.66,2.18,4.41,2.18h.03c2.8,0,5.05-2.42,5.04-5.2l-.21-15.9,16.48,16.48v20.73c0,2.78,2.27,5.03,5.07,5.03s5.07-2.25,5.07-5.03v-10.67l12.21,12.01c.99.98,2.34,1.47,3.64,1.47s2.62-.49,3.61-1.47c1.98-1.97,1.99-5.15.01-7.12l-11.74-11.68h10.06c2.8,0,5.07-2.25,5.07-5.03s-2.27-5.03-5.07-5.03h-20.2l-17.39-17.28,15.58-.56c.06,0,.11-.01.16-.01.02,0,.04,0,.06,0,2.69-.21,4.75-2.49,4.66-5.19-.06-1.63-.89-3.04-2.13-3.92l-9.36-9.28h23.54l14.42,14.33c.99.98,2.29,1.47,3.58,1.47s2.59-.49,3.58-1.47c1.98-1.97,1.98-5.15,0-7.12l-7.26-7.21h16.43c2.8,0,5.07-2.25,5.07-5.03s-2.27-5.03-5.07-5.03Zm-59.94-10.08l-9.44,10.08h-13.18l10.14-10.07h12.48Zm-20.67-19.93l.24,13.42-9.73,9.61v-14.05l9.49-8.98Zm-29.02.05l9.39,8.94v13.56l-9.41-9.4v-13.1Zm-20.54,20.52l13.35-.48,9.98,9.91h-13.72l-9.62-9.43Zm.26,28.88l8.79-9.38h14.09l-9.35,9.29-13.52.09Zm20.69,21.56l-.58-14.12,9.57-9.56v14.5l-8.99,9.18Zm29.02-.22l-9.9-9.05v-14.89l9.76,9.64.14,14.29Zm20.39-21.95l-13.25.47-9.3-9.24h13.71l8.85,8.77Z"/>
</svg>