<?xml version="1.0" encoding="UTF-8" standalone="no"?>
<!-- Created with Inkscape (http://www.inkscape.org/) -->

<svg
   width="132.29166mm"
   height="132.29167mm"
   viewBox="0 0 132.29166 132.29167"
   version="1.1"
   id="svg21"
   xml:space="preserve"
   xmlns:xlink="http://www.w3.org/1999/xlink"
   xmlns="http://www.w3.org/2000/svg"
   xmlns:svg="http://www.w3.org/2000/svg"><defs
     id="defs18"><linearGradient
       id="linearGradient9004"><stop
         style="stop-color:#1a1a1a;stop-opacity:1"
         offset="0"
         id="stop9000" /><stop
         style="stop-color:#808080;stop-opacity:1"
         offset="0.45644537"
         id="stop9008" /><stop
         style="stop-color:#333333;stop-opacity:1"
         offset="1"
         id="stop9002" /></linearGradient><linearGradient
       id="linearGradient8988"><stop
         style="stop-color:#000000;stop-opacity:1;"
         offset="0"
         id="stop8984" /><stop
         style="stop-color:#666666;stop-opacity:1"
         offset="0.51851851"
         id="stop8992" /><stop
         style="stop-color:#333333;stop-opacity:1"
         offset="1"
         id="stop8986" /></linearGradient><linearGradient
       id="linearGradient8171"><stop
         style="stop-color:#ffff00;stop-opacity:1;"
         offset="0"
         id="stop8167" /><stop
         style="stop-color:#ffff00;stop-opacity:0;"
         offset="1"
         id="stop8169" /></linearGradient><linearGradient
       id="linearGradient8163"><stop
         style="stop-color:#b3b3b3;stop-opacity:1"
         offset="0"
         id="stop8159" /><stop
         style="stop-color:#808080;stop-opacity:1"
         offset="1"
         id="stop8161" /></linearGradient><linearGradient
       id="linearGradient8147"><stop
         style="stop-color:#0000ff;stop-opacity:1;"
         offset="0"
         id="stop8143" /><stop
         style="stop-color:#0000ff;stop-opacity:0;"
         offset="1"
         id="stop8145" /></linearGradient><linearGradient
       xlink:href="#linearGradient8147"
       id="linearGradient8149"
       x1="102.3375"
       y1="0.74835467"
       x2="103.64713"
       y2="96.911934"
       gradientUnits="userSpaceOnUse" /><radialGradient
       xlink:href="#linearGradient8163"
       id="radialGradient8165"
       cx="67.182373"
       cy="32.154884"
       fx="67.182373"
       fy="32.154884"
       r="12.911342"
       gradientTransform="matrix(0.59370164,-0.00417345,0.00802483,1.1416054,26.272156,-4.2485594)"
       gradientUnits="userSpaceOnUse" /><radialGradient
       xlink:href="#linearGradient8171"
       id="radialGradient8173"
       cx="51.823563"
       cy="30.122982"
       fx="51.823563"
       fy="30.122982"
       r="34.719051"
       gradientTransform="matrix(-1.9106157,-0.00778434,-7.5003024e-5,-0.26776105,162.26041,40.057027)"
       gradientUnits="userSpaceOnUse" /><linearGradient
       xlink:href="#linearGradient8988"
       id="linearGradient8996"
       gradientUnits="userSpaceOnUse"
       x1="36.692062"
       y1="125.5138"
       x2="97.308792"
       y2="125.5138"
       gradientTransform="translate(-0.3968596,0.39687503)" /><linearGradient
       xlink:href="#linearGradient9004"
       id="linearGradient9006"
       x1="52.571915"
       y1="20.205578"
       x2="80.448128"
       y2="20.392666"
       gradientUnits="userSpaceOnUse" /><radialGradient
       xlink:href="#linearGradient8171"
       id="radialGradient8173-0"
       cx="51.823563"
       cy="30.122982"
       fx="51.823563"
       fy="30.122982"
       r="34.719051"
       gradientTransform="matrix(1.9106157,-0.00778434,7.5003024e-5,-0.26776105,-29.652504,40.076345)"
       gradientUnits="userSpaceOnUse" /></defs><g
     id="layer1"><rect
       style="font-variation-settings:normal;opacity:1;vector-effect:none;fill:url(#linearGradient8149);fill-opacity:1;fill-rule:evenodd;stroke:#000000;stroke-width:0.992498;stroke-linecap:butt;stroke-linejoin:miter;stroke-miterlimit:4;stroke-dasharray:none;stroke-dashoffset:0;stroke-opacity:1;-inkscape-stroke:none;stop-color:#000000;stop-opacity:1"
       id="rect518"
       width="131.29916"
       height="131.29916"
       x="0.49624899"
       y="0.49624899" /><rect
       style="font-variation-settings:normal;opacity:1;vector-effect:none;fill:url(#radialGradient8165);fill-opacity:1;fill-rule:evenodd;stroke:#000000;stroke-width:0.984206;stroke-linecap:butt;stroke-linejoin:miter;stroke-miterlimit:4;stroke-dasharray:none;stroke-dashoffset:0;stroke-opacity:1;-inkscape-stroke:none;stop-color:#000000;stop-opacity:1"
       id="rect2420"
       width="24.838478"
       height="18.007462"
       x="54.147541"
       y="23.010853" /><g
       id="g9142"><path
         d="m -4.2075811,31.692206 -0.07473,9.295941 0.554334,-0.04886 c 0.489857,-0.04051 57.2808761,-3.930025 65.8264831,-4.501238 1.946328,-0.135437 3.738005,-0.263241 3.982968,-0.287937 l 0.425449,-0.04101 -0.0593,-3.839969 c -0.03452,-2.115549 -0.085,-3.849058 -0.09774,-3.866936 C 66.324263,28.384207 63.517942,28.130575 60.093526,27.8453 56.669175,27.551144 48.15976,26.825044 41.182323,26.2268 22.348341,24.617801 15.538221,24.038675 7.8656089,23.381517 c -3.797697,-0.323826 -7.91722195,-0.676902 -9.140182,-0.784497 -1.222961,-0.107595 -2.368774,-0.196799 -2.536235,-0.198145 l -0.322038,-0.0026 z"
         id="path1936"
         style="fill:url(#radialGradient8173);fill-opacity:1;stroke:none;stroke-width:0.0106999" /><path
         d="m 136.81549,31.711524 0.0747,9.295941 -0.55433,-0.04886 C 135.846,40.918095 79.054976,37.02858 70.509366,36.457367 c -1.94632,-0.135437 -3.738,-0.263241 -3.98296,-0.287937 l -0.42545,-0.04101 0.0593,-3.839969 c 0.0345,-2.115549 0.085,-3.849058 0.0977,-3.866936 0.0256,-0.01799 2.83194,-0.271622 6.25635,-0.556897 3.42435,-0.294156 11.93377,-1.020256 18.91121,-1.6185 18.833984,-1.608999 25.644104,-2.188125 33.316714,-2.845283 3.7977,-0.323826 7.91722,-0.676902 9.14018,-0.784497 1.22296,-0.107595 2.36878,-0.196799 2.53624,-0.198145 l 0.32204,-0.0026 z"
         id="path1936-5"
         style="fill:url(#radialGradient8173-0);fill-opacity:1;stroke:none;stroke-width:0.0106999" /></g><g
       id="g9433"><path
         style="fill:#550000;stroke:#000000;stroke-width:1.165;stroke-linecap:butt;stroke-linejoin:miter;stroke-dasharray:none;stroke-opacity:1"
         d="M 0.37417762,78.951416 17.02507,63.797237 l 26.753676,19.45722 44.152933,-9.9157 c 0,0 21.141021,17.399246 22.824821,17.399246 1.6838,0 20.57975,-3.367595 20.57975,-3.367595 l 0.56127,44.714192 H 6.2099145e-7 Z"
         id="path2823" /><path
         style="fill:#ffffff;fill-opacity:1;stroke:#ffffff;stroke-width:0.265;stroke-linecap:butt;stroke-linejoin:miter;stroke-dasharray:none;stroke-opacity:1"
         d="m 5.9547379,72.590402 7.6706361,7.670636 6.361014,-4.864306 4.30304,1.683798 4.490127,-1.496709 2.993419,1.683798 2.245063,-1.870887 -16.65089,-12.53494 z"
         id="path9423" /><path
         style="fill:#ffffff;fill-opacity:1;stroke:none;stroke-width:0.264583px;stroke-linecap:butt;stroke-linejoin:miter;stroke-opacity:1"
         d="m 54.255714,80.325236 33.67596,-8.418991 20.205576,16.276714 -7.85773,1.122534 -7.109363,2.61924 c 0,0 -2.619243,-4.864306 -4.115951,-4.490127 -1.496711,0.374176 -12.722029,3.180506 -12.722029,3.180506 0,0 -1.683798,-5.799749 -3.554685,-5.799749 -1.870887,0 -13.283295,0.935445 -13.283295,0.935445 z"
         id="path9425" /><path
         style="fill:#ffffff;fill-opacity:1;stroke:none;stroke-width:0.264583px;stroke-linecap:butt;stroke-linejoin:miter;stroke-opacity:1"
         d="m 120.33011,88.182959 10.85114,-2.432151 0.56127,11.973674 -4.11595,-6.735191 -6.54811,0.748353 z"
         id="path9427" /></g><rect
       style="font-variation-settings:normal;opacity:1;vector-effect:none;fill:#000080;fill-opacity:1;fill-rule:evenodd;stroke:#000000;stroke-width:1;stroke-linecap:butt;stroke-linejoin:miter;stroke-miterlimit:4;stroke-dasharray:none;stroke-dashoffset:0;stroke-opacity:1;-inkscape-stroke:none;stop-color:#000000;stop-opacity:1"
       id="rect2280"
       width="130.83646"
       height="33.866665"
       x="0.92604166"
       y="97.366669" /><path
       d="m 55.209203,16.814264 c -5.917158,3.413744 -10.898697,6.35968 -11.08835,6.561976 -0.644819,0.708036 -0.391948,1.858594 0.493096,2.225256 0.341375,0.151722 3.957416,0.177009 21.380159,0.177009 11.543515,0 21.165219,-0.03793 21.380159,-0.07586 0.227583,-0.05057 0.568957,-0.25287 0.783897,-0.455166 0.50574,-0.518384 0.518383,-1.314924 0.02529,-1.871238 -0.366665,-0.379306 -21.77211,-12.769936 -22.062911,-12.757293 -0.0885,0 -4.994182,2.78157 -10.91134,6.195316 z"
       id="path1934"
       style="fill:url(#linearGradient9006);fill-opacity:1;stroke:#000000;stroke-width:1;stroke-dasharray:none;stroke-opacity:0.899598" /><path
       d="m 43.526609,40.331173 c -0.885046,0.354018 -1.44136,1.137916 -1.428716,2.02296 0.01264,0.948263 0.733323,1.757447 1.795377,1.997673 0.316087,0.07586 1.251707,0.139079 2.086178,0.139079 h 1.529863 l -6.979212,43.266057 c -3.843624,23.807718 -7.017142,43.493648 -7.055073,43.746518 l -0.07586,0.48045 H 66.14583 98.892495 l -0.07586,-0.48045 c -0.03793,-0.25287 -3.211449,-19.92616 -7.055073,-43.708587 l -6.966568,-43.240771 1.833307,-0.07586 c 1.959743,-0.07586 2.111465,-0.113792 2.756283,-0.581602 1.125272,-0.83447 1.062054,-2.503413 -0.139079,-3.299953 L 88.727122,40.255312 66.28491,40.230022 c -13.90785,-0.01264 -22.568648,0.02529 -22.7583,0.101147 z"
       id="path1940"
       style="fill:url(#linearGradient8996);fill-opacity:1;stroke:#000000;stroke-width:1;stroke-dasharray:none;stroke-opacity:0.899598" /><g
       id="g9138"><path
         style="fill:#ffff00;stroke:#ffff00;stroke-width:0;stroke-dasharray:none"
         id="path8310-7"
         d="M 24.209274,8.1944837 23.181565,10.705013 22.430526,8.0983134 19.725292,7.8967009 21.972327,6.376906 21.328108,3.7417736 23.467891,5.409188 25.774976,3.9821992 24.8504,6.5325128 26.920476,8.2857176 Z"
         transform="matrix(0.27796358,0,0,0.28722247,102.2156,6.1571806)" /><path
         style="fill:#ffff00;stroke:#ffff00;stroke-width:0;stroke-dasharray:none"
         id="path8310-38"
         d="M 24.209274,8.1944837 23.181565,10.705013 22.430526,8.0983134 19.725292,7.8967009 21.972327,6.376906 21.328108,3.7417736 23.467891,5.409188 25.774976,3.9821992 24.8504,6.5325128 26.920476,8.2857176 Z"
         transform="matrix(0.27796358,0,0,0.28722247,33.554063,14.014904)" /><path
         style="fill:#ffff00;stroke:#ffff00;stroke-width:0;stroke-dasharray:none"
         id="path8310-52"
         d="M 24.209274,8.1944837 23.181565,10.705013 22.430526,8.0983134 19.725292,7.8967009 21.972327,6.376906 21.328108,3.7417736 23.467891,5.409188 25.774976,3.9821992 24.8504,6.5325128 26.920476,8.2857176 Z"
         transform="matrix(0.27796358,0,0,0.28722247,27.005959,48.43922)" /><path
         style="fill:#ffff00;stroke:#ffff00;stroke-width:0;stroke-dasharray:none"
         id="path8310-30"
         d="M 24.209274,8.1944837 23.181565,10.705013 22.430526,8.0983134 19.725292,7.8967009 21.972327,6.376906 21.328108,3.7417736 23.467891,5.409188 25.774976,3.9821992 24.8504,6.5325128 26.920476,8.2857176 Z"
         transform="matrix(0.27796358,0,0,0.28722247,7.7358265,12.331107)" /><path
         style="fill:#ffff00;stroke:#ffff00;stroke-width:0;stroke-dasharray:none"
         id="path8310-4"
         d="M 24.209274,8.1944837 23.181565,10.705013 22.430526,8.0983134 19.725292,7.8967009 21.972327,6.376906 21.328108,3.7417736 23.467891,5.409188 25.774976,3.9821992 24.8504,6.5325128 26.920476,8.2857176 Z"
         transform="matrix(0.27796358,0,0,0.28722247,77.145723,5.0346486)" /><path
         style="fill:#ffff00;stroke:#ffff00;stroke-width:0;stroke-dasharray:none"
         id="path8310-5"
         d="M 24.209274,8.1944837 23.181565,10.705013 22.430526,8.0983134 19.725292,7.8967009 21.972327,6.376906 21.328108,3.7417736 23.467891,5.409188 25.774976,3.9821992 24.8504,6.5325128 26.920476,8.2857176 Z"
         transform="matrix(0.27796358,0,0,0.28722247,51.140398,10.273131)" /><path
         style="fill:#ffff00;stroke:#ffff00;stroke-width:0;stroke-dasharray:none"
         id="path8310-11"
         d="M 24.209274,8.1944837 23.181565,10.705013 22.430526,8.0983134 19.725292,7.8967009 21.972327,6.376906 21.328108,3.7417736 23.467891,5.409188 25.774976,3.9821992 24.8504,6.5325128 26.920476,8.2857176 Z"
         transform="matrix(0.27796358,0,0,0.28722247,96.977122,53.490614)" /><path
         style="fill:#ffff00;stroke:#ffff00;stroke-width:0;stroke-dasharray:none"
         id="path8310-3"
         d="M 24.209274,8.1944837 23.181565,10.705013 22.430526,8.0983134 19.725292,7.8967009 21.972327,6.376906 21.328108,3.7417736 23.467891,5.409188 25.774976,3.9821992 24.8504,6.5325128 26.920476,8.2857176 Z"
         transform="matrix(0.27796358,0,0,0.28722247,115.12472,12.705284)" /><path
         style="fill:#ffff00;stroke:#ffff00;stroke-width:0;stroke-dasharray:none"
         id="path8310-0"
         d="M 24.209274,8.1944837 23.181565,10.705013 22.430526,8.0983134 19.725292,7.8967009 21.972327,6.376906 21.328108,3.7417736 23.467891,5.409188 25.774976,3.9821992 24.8504,6.5325128 26.920476,8.2857176 Z"
         transform="matrix(0.27796358,0,0,0.28722247,89.306486,10.086043)" /><path
         style="fill:#ffff00;stroke:#ffff00;stroke-width:0;stroke-dasharray:none"
         id="path8310-1"
         d="M 24.209274,8.1944837 23.181565,10.705013 22.430526,8.0983134 19.725292,7.8967009 21.972327,6.376906 21.328108,3.7417736 23.467891,5.409188 25.774976,3.9821992 24.8504,6.5325128 26.920476,8.2857176 Z"
         transform="matrix(0.27796358,0,0,0.28722247,31.12191,5.9700919)" /><path
         style="fill:#ffff00;stroke:#ffff00;stroke-width:0;stroke-dasharray:none"
         id="path8310"
         d="M 24.209274,8.1944837 23.181565,10.705013 22.430526,8.0983134 19.725292,7.8967009 21.972327,6.376906 21.328108,3.7417736 23.467891,5.409188 25.774976,3.9821992 24.8504,6.5325128 26.920476,8.2857176 Z"
         transform="matrix(0.27796358,0,0,0.28722247,14.242378,2.6670512)" /></g><g
       id="g1082"
       transform="translate(-21.724999,-30.191667)"><rect
         style="font-variation-settings:normal;opacity:1;vector-effect:none;fill:#ffffff;fill-opacity:1;fill-rule:evenodd;stroke:#000000;stroke-width:1;stroke-linecap:butt;stroke-linejoin:miter;stroke-miterlimit:4;stroke-dasharray:none;stroke-dashoffset:0;stroke-opacity:1;-inkscape-stroke:none;stop-color:#000000;stop-opacity:1"
         id="rect521"
         width="0.52916664"
         height="18.785416"
         x="22.489584"
         y="21.960417" /><rect
         style="font-variation-settings:normal;opacity:1;vector-effect:none;fill:#ffffff;fill-opacity:1;fill-rule:evenodd;stroke:#000000;stroke-width:1;stroke-linecap:butt;stroke-linejoin:miter;stroke-miterlimit:4;stroke-dasharray:none;stroke-dashoffset:0;stroke-opacity:1;-inkscape-stroke:none;stop-color:#000000;stop-opacity:1"
         id="rect523"
         width="19.314583"
         height="0.79374999"
         x="13.229166"
         y="30.691666" /></g></g></svg>
