<?xml version="1.0" encoding="UTF-8" standalone="no"?>
<!-- Created with Inkscape (http://www.inkscape.org/) -->

<svg
   width="132.29166mm"
   height="132.29167mm"
   viewBox="0 0 132.29166 132.29167"
   version="1.1"
   id="svg12085"
   xml:space="preserve"
   xmlns="http://www.w3.org/2000/svg"
   xmlns:svg="http://www.w3.org/2000/svg"><defs
     id="defs12082" /><g
     id="layer1"><g
       style="fill:#000000"
       id="g12217"
       transform="matrix(0.44693131,0,0,0.44393177,-0.44693131,0)"><g
         id="g12208">
	<path
   d="m 289.5,140.5 h -24.606 l 11.031,-11.03 c 2.93,-2.929 2.93,-7.678 10e-4,-10.606 -2.929,-2.929 -7.678,-2.93 -10.606,-0.001 L 243.681,140.5 h -36.369 l 16.182,-17.392 c 2.821,-3.032 2.65,-7.777 -0.383,-10.6 -1.243,-1.156 -2.775,-1.802 -4.345,-1.961 -0.952,-0.047 -21.495,-0.003 -21.495,-0.003 L 221.315,86.5 H 251.5 c 4.143,0 7.5,-3.357 7.5,-7.5 0,-4.143 -3.357,-7.5 -7.5,-7.5 h -15.186 l 17.69,-17.69 c 2.929,-2.93 2.929,-7.678 0,-10.608 -2.93,-2.928 -7.844,-2.928 -10.774,0 L 225.167,61.1 V 45.5 c 0,-4.143 -3.357,-7.5 -7.5,-7.5 -4.143,0 -7.5,3.357 -7.5,7.5 V 76.101 L 185.33,101.105 184.915,78.46 c -0.001,-0.036 0.035,-0.07 0.034,-0.106 -0.035,-1.824 -0.704,-3.641 -2.07,-5.059 -2.873,-2.982 -7.778,-3.07 -10.761,-0.194 l -15.951,15.226 v -35.22 l 21.47,-21.304 c 2.929,-2.93 3.012,-7.678 0.083,-10.607 -2.93,-2.928 -7.803,-2.928 -10.732,0 L 156.167,31.892 V 7.5 c 0,-4.143 -3.357,-7.5 -7.5,-7.5 -4.143,0 -7.5,3.357 -7.5,7.5 v 24.393 l -10.53,-10.696 c -2.93,-2.928 -7.594,-2.928 -10.524,0 -2.929,2.93 -3.054,7.678 -0.125,10.607 l 21.179,21.304 V 88.529 L 124.991,73.054 c -3.009,-2.847 -7.67,-2.718 -10.52,0.289 -1.075,1.136 -1.683,2.52 -1.914,3.955 -0.142,0.583 -0.203,1.188 -0.201,1.811 l -0.088,21.229 -25.1,-24.944 V 45.5 c 0,-4.143 -3.357,-7.5 -7.5,-7.5 -4.143,0 -7.5,3.357 -7.5,7.5 V 60.394 L 55.142,43.202 c -2.93,-2.928 -7.594,-2.928 -10.524,0 -2.929,2.93 -2.887,7.678 0.042,10.608 L 62.392,71.5 H 46.5 c -4.143,0 -7.5,3.357 -7.5,7.5 0,4.143 3.357,7.5 7.5,7.5 h 30.892 l 24.744,24.744 -23.057,0.831 c -4.021,0.146 -7.524,3.435 -7.563,7.418 -0.004,0.112 -0.349,0.225 -0.349,0.337 0,0.003 0,0.007 0,0.011 0,0.008 0.345,0.017 0.345,0.024 0.045,1.875 0.955,3.736 2.395,5.158 L 89.748,140.5 H 55.025 L 33.387,118.862 c -2.93,-2.928 -7.678,-2.928 -10.607,0 -2.929,2.93 -2.929,7.678 0,10.607 l 11.03,11.03 H 8.5 c -4.143,0 -7.5,3.357 -7.5,7.5 0,4.143 3.357,7.5 7.5,7.5 h 25.02 l -10.74,10.74 c -2.929,2.93 -2.929,7.678 0,10.607 1.465,1.464 3.385,2.196 5.304,2.196 1.919,0 3.839,-0.732 5.304,-2.196 L 54.734,155.5 h 35.027 l -15.253,16.394 c -2.821,3.032 -2.65,7.777 0.383,10.6 1.444,1.344 3.277,2.009 5.106,2.009 0.034,0 0.068,-0.005 0.103,-0.005 0.022,0 0.044,0.003 0.065,0.003 0.018,0 0.037,0 0.055,0 L 102.225,184.376 77.101,209.5 H 46.5 c -4.143,0 -7.5,3.357 -7.5,7.5 0,4.143 3.357,7.5 7.5,7.5 h 15.601 l -17.399,17.399 c -2.929,2.93 -2.929,7.678 0,10.607 1.465,1.464 3.385,2.196 5.304,2.196 1.919,0 3.672,-0.732 5.137,-2.196 L 72.168,235.315 V 250.5 c 0,4.143 3.357,7.5 7.5,7.5 4.143,0 7.5,-3.357 7.5,-7.5 v -30.185 l 25.445,-25.278 0.977,24.39 c 0.148,4.046 3.517,7.306 7.532,7.225 1.364,-0.027 2.844,-0.465 4.312,-1.543 1.063,-0.781 15.734,-15.812 15.734,-15.812 v 35.385 l -20.971,21.137 c -2.93,2.929 -2.846,7.678 0.082,10.607 1.465,1.465 3.425,2.197 5.345,2.197 1.919,0 3.693,-0.732 5.157,-2.196 l 10.387,-10.532 V 290.5 c 0,4.143 3.357,7.5 7.5,7.5 4.143,0 7.5,-3.357 7.5,-7.5 v -25.31 l 11.404,11.237 c 1.465,1.464 3.468,2.196 5.387,2.196 1.919,0 3.881,-0.732 5.345,-2.196 2.929,-2.93 2.783,-7.678 -0.146,-10.607 l -21.99,-21.845 v -35.7 c 0,0 13.729,12.896 15.896,14.976 2.167,2.08 3.942,3.25 6.525,3.25 0.015,0 0.03,0 0.046,0 4.142,0 7.48,-3.604 7.455,-7.746 l -0.306,-23.696 24.384,24.551 v 30.89 c 0,4.143 3.357,7.5 7.5,7.5 4.143,0 7.5,-3.357 7.5,-7.5 v -15.891 l 18.064,17.897 c 1.465,1.464 3.467,2.196 5.387,2.196 1.919,0 3.88,-0.732 5.345,-2.196 2.929,-2.93 2.95,-7.678 0.021,-10.607 L 236.605,224.5 H 251.5 c 4.143,0 7.5,-3.357 7.5,-7.5 0,-4.143 -3.357,-7.5 -7.5,-7.5 h -29.894 l -25.742,-25.742 23.059,-0.831 c 0.082,-0.003 0.162,-0.016 0.243,-0.021 0.03,-0.002 0.06,-0.005 0.09,-0.008 3.977,-0.319 7.037,-3.709 6.892,-7.736 -0.087,-2.424 -1.32,-4.531 -3.155,-5.837 L 209.138,155.5 h 34.835 l 21.345,21.346 c 1.465,1.465 3.384,2.197 5.304,2.197 1.919,0 3.839,-0.732 5.303,-2.196 2.93,-2.929 2.93,-7.678 10e-4,-10.606 l -10.74,-10.74 H 289.5 c 4.143,0 7.5,-3.357 7.5,-7.5 0,-4.143 -3.357,-7.501 -7.5,-7.501 z M 200.795,125.483 186.823,140.5 h -19.507 l 15.002,-15.002 z m -30.585,-29.699 0.356,20.002 -14.399,14.315 V 109.16 Z m -42.947,0.081 13.904,13.323 v 20.205 l -13.925,-14.008 z m -30.401,30.579 19.762,-0.712 14.768,14.768 h -20.299 z m 0.384,43.033 13.004,-13.977 h 20.851 l -13.841,13.841 z m 30.617,32.122 -0.854,-21.042 14.158,-14.241 v 21.604 z m 42.956,-0.335 -14.652,-13.478 v -22.179 l 14.442,14.359 z m 30.172,-32.7 -19.614,0.706 -13.77,-13.77 h 20.292 z"
   id="path12206" />
</g></g></g></svg>
